{"asset":{"version":"2.0","generator":"Blockbench 4.12.5 glTF exporter"},"scenes":[{"nodes":[2],"name":"blockbench_export"}],"scene":0,"nodes":[{"translation":[0,0.375,0],"name":"cube","mesh":0},{"name":"slime","children":[0]},{"children":[1]}],"bufferViews":[{"buffer":0,"byteOffset":0,"byteLength":288,"target":34962,"byteStride":12},{"buffer":0,"byteOffset":288,"byteLength":288,"target":34962,"byteStride":12},{"buffer":0,"byteOffset":576,"byteLength":192,"target":34962,"byteStride":8},{"buffer":0,"byteOffset":768,"byteLength":72,"target":34963},{"buffer":0,"byteOffset":840,"byteLength":12},{"buffer":0,"byteOffset":852,"byteLength":36},{"buffer":0,"byteOffset":888,"byteLength":4},{"buffer":0,"byteOffset":892,"byteLength":12}],"buffers":[{"byteLength":904,"uri":"data:application/octet-stream;base64,"}],"accessors":[{"bufferView":0,"componentType":5126,"count":24,"max":[0.4375,0.375,0.4375],"min":[-0.4375,-0.375,-0.4375],"type":"VEC3"},{"bufferView":1,"componentType":5126,"count":24,"max":[1,1,1],"min":[-1,-1,-1],"type":"VEC3"},{"bufferView":2,"componentType":5126,"count":24,"max":[0.4375,0.625],"min":[0,0],"type":"VEC2"},{"bufferView":3,"componentType":5123,"count":36,"max":[23],"min":[0],"type":"SCALAR"},{"bufferView":4,"componentType":5126,"count":3,"max":[0.5],"min":[0],"type":"SCALAR"},{"bufferView":5,"componentType":5126,"count":3,"max":[0,0.1875,0],"min":[0,0,0],"type":"VEC3"},{"bufferView":6,"componentType":5126,"count":1,"max":[0],"min":[0],"type":"SCALAR"},{"bufferView":7,"componentType":5126,"count":1,"max":[0,0,0],"min":[0,0,0],"type":"VEC3"}],"materials":[{"pbrMetallicRoughness":{"metallicFactor":0,"roughnessFactor":1,"baseColorTexture":{"index":0}},"alphaMode":"MASK","alphaCutoff":0.05,"doubleSided":true}],"textures":[{"sampler":0,"source":0,"name":"slime.png"}],"samplers":[{"magFilter":9728,"minFilter":9728,"wrapS":33071,"wrapT":33071}],"images":[{"mimeType":"image/png","uri":"data:image/png;base64,"}],"meshes":[{"primitives":[{"mode":4,"attributes":{"POSITION":0,"NORMAL":1,"TEXCOORD_0":2},"indices":3,"material":0}]}],"animations":[{"name":"animation.slime.walk","samplers":[{"input":4,"output":5,"interpolation":"STEP"}],"channels":[{"sampler":0,"target":{"node":1,"path":"translation"}}]},{"name":"animation.slime.idle","samplers":[{"input":6,"output":7,"interpolation":"LINEAR"}],"channels":[{"sampler":0,"target":{"node":1,"path":"translation"}}]}]}